<?xml version="1.0" encoding="utf-8"?>
<!-- Generator: Adobe Illustrator 26.5.0, SVG Export Plug-In . SVG Version: 6.00 Build 0)  -->
<svg version="1.1" id="katman_1" xmlns="http://www.w3.org/2000/svg" xmlns:xlink="http://www.w3.org/1999/xlink" x="0px" y="0px"
	 viewBox="0 0 1080 1080" style="enable-background:new 0 0 1080 1080;" xml:space="preserve">
<g>
	<path d="M160.7,847.5c59,28,120.7,31.6,182.8,16.8c90.7-21.7,152.6-80.3,189.4-163.5c28.1-63.6,48.9-130.3,74.1-195.2
		c18.7-48.1,38.1-96,58.9-143.2c38.9-88,108.7-115.7,206.4-101.5c88.9,12.9,140,72.1,168.1,152.6c33.2,95.2,33.2,193.6,19.2,292.1
		c-7.1,49.9-17.6,99.3-27.4,148.7c-1,5.2-8.2,13-12.7,13.1c-81,2.3-162.1,3.5-243.2,4.9c-1.7,0-3.4-0.9-6.2-1.6c0-5.6,0-11.2,0-16.5
		c22.9-4.4,45.8-6.7,67.3-13.5c56.9-17.8,92.5-59.6,114.6-112.5c39.2-93.4,47.9-189.7,14.7-286.6c-8.7-25.4-24.4-50.1-42.3-70.4
		c-48.9-55.8-131.1-50.7-173.7,10.9c-19.3,27.9-35.4,58.9-48,90.4c-29.4,73.6-55.2,148.6-83.7,222.6
		c-20.5,53.3-41.6,106.2-82.4,148.7c-85.7,89.1-222.5,112.3-323.6,52.4c-20.2-12-37.5-29-56.1-43.7
		C158.3,850.9,159.5,849.2,160.7,847.5z"/>
	<path d="M878,195.5c-45-7.6-89-7.1-132.1,7.6c-68.3,23.2-120.7,66.4-148.7,132.8C569.6,401,549.5,469.2,523.4,535
		c-21.6,54.5-42.6,110.2-71.8,160.7c-65.4,113.2-200.1,142-312.1,72.9C54.3,716.1,18.3,637.4,12.2,541.2
		c-4.7-75.3,12.6-148.1,25.7-221.4c6-33.7,10.4-67.6,14.5-101.6c1.5-12.3,5.5-17.8,18.8-18.3c57.6-2.2,115.1-6.2,172.7-8.1
		c35.4-1.2,70.8-0.2,106.3,0.1c8.6,0.1,16.7,0.5,16.5,13.4c-0.2,13.2-9,12.2-17.1,12.8C172.1,232.1,46.1,428.9,95.8,597
		c25.9,87.7,102.8,139,190.4,126.6c46.4-6.6,81.4-32,100.9-73.2c26.7-56.3,49.6-114.4,72.6-172.3c25.2-63.6,44.8-129.7,73.8-191.4
		c36.5-77.8,100-124.9,187.3-134.8C778.7,145.3,830.6,163,878,195.5z"/>
</g>
</svg>
